<svg 
 xmlns="http://www.w3.org/2000/svg"
 xmlns:xlink="http://www.w3.org/1999/xlink"
 width="96px" height="54px">
<path fill-rule="evenodd" fill="rgb(255, 255, 255)"
 d="M96.001,3.624 C96.001,4.516 95.674,5.409 95.019,6.104 C95.019,6.104 50.859,52.890 50.859,52.890 C50.187,53.601 49.256,54.005 48.285,54.008 C47.313,54.012 46.383,53.615 45.707,52.908 C45.707,52.908 0.997,6.126 0.997,6.126 C-0.369,4.689 -0.327,2.418 1.087,1.037 C2.505,-0.344 4.765,-0.302 6.130,1.128 C6.130,1.128 48.257,45.208 48.257,45.208 C48.257,45.208 89.850,1.143 89.850,1.143 C91.212,-0.298 93.469,-0.354 94.894,1.016 C95.629,1.726 96.001,2.675 96.001,3.624 Z"/>
</svg>